<svg version="1.1" viewBox="0.0 0.0 128.0 128.0" fill="none" stroke="none" stroke-linecap="square" stroke-miterlimit="10" xmlns:xlink="http://www.w3.org/1999/xlink" xmlns="http://www.w3.org/2000/svg"><clipPath id="p.0"><path d="m0 0l128.0 0l0 128.0l-128.0 0l0 -128.0z" clip-rule="nonzero"/></clipPath><g clip-path="url(#p.0)"><path fill="#000000" fill-opacity="0.0" d="m0 0l128.0 0l0 128.0l-128.0 0z" fill-rule="evenodd"/><path fill="#fce5cd" d="m0 0l128.0 0l0 128.0l-128.0 0z" fill-rule="evenodd"/><g filter="url(#shadowFilter-p.1)"><use xlink:href="#p.1" transform="matrix(1.0 0.0 0.0 1.0 0.0 6.0)"/></g><defs><filter id="shadowFilter-p.1" filterUnits="userSpaceOnUse"><feGaussianBlur in="SourceAlpha" stdDeviation="2.0" result="blur"/><feComponentTransfer in="blur" color-interpolation-filters="sRGB"><feFuncR type="linear" slope="0" intercept="0.6"/><feFuncG type="linear" slope="0" intercept="0.6"/><feFuncB type="linear" slope="0" intercept="0.6"/><feFuncA type="linear" slope="0.61" intercept="0"/></feComponentTransfer></filter></defs><g id="p.1"><path fill="#000000" d="m14.000002 17.229351l0 85.5863l45.484154 0l0 -18.674438l-26.730247 0l0 -66.911865z" fill-rule="evenodd"/><path fill="#000000" d="m94.00084 16.0c-8.134605 0 -14.528343 2.2050266 -19.181213 6.6150837c-4.6528625 4.410055 -6.9793015 10.556814 -6.9793015 18.440279c0 4.21492 0.5433655 7.863949 1.6300888 10.947086c1.0972748 3.0831337 2.7748413 5.815029 5.032692 8.195679c2.268402 2.3806496 5.6657333 4.8393555 10.191994 7.376114c5.001045 2.7709198 8.076576 4.6051865 9.226608 5.5028076c1.1605759 0.89762115 1.9993591 1.7887421 2.5163422 2.673355c0.5275345 0.8715973 0.79130554 1.8928146 0.79130554 3.0636215c0 1.8732986 -0.64886475 3.4083633 -1.9466095 4.605194c-1.2977371 1.183815 -3.339302 1.7757263 -6.124687 1.7757263c-3.2285233 0 -6.773567 -0.63093567 -10.635132 -1.892807c-3.861557 -1.2748871 -7.5806885 -3.0441132 -11.157379 -5.307678l0 20.606277c3.3867798 1.9903793 6.64695 3.3888474 9.780518 4.195404c3.1335602 0.7935486 7.010948 1.1903305 11.632164 1.1903305c5.539131 0 10.366081 -1.138298 14.4808655 -3.4148712c4.1147766 -2.289589 7.264168 -5.489807 9.448166 -9.600647c2.183998 -4.123863 3.276001 -8.83963 3.276001 -14.147308c0 -5.776001 -1.1658554 -10.563316 -3.4975662 -14.36195c-2.3211594 -3.8116417 -6.4728622 -7.376114 -12.455124 -10.693413c-6.2354736 -3.512432 -10.060112 -5.93211 -11.473907 -7.2590294c-1.403244 -1.3269196 -2.104866 -2.8294601 -2.104866 -4.507622c0 -1.5610809 0.5539093 -2.8684883 1.6617355 -3.9222183c1.1078262 -1.05373 2.8803482 -1.5805969 5.317566 -1.5805969c4.7161713 0 10.3186035 1.8342705 16.807297 5.5028152l5.7448654 -17.854874c-7.4699097 -4.0978394 -14.797386 -6.146759 -21.982422 -6.146759z" fill-rule="evenodd"/><path stroke="#000000" stroke-width="1.0" stroke-linejoin="round" stroke-linecap="butt" d="m14.000002 17.229351l0 85.5863l45.484154 0l0 -18.674438l-26.730247 0l0 -66.911865z" fill-rule="evenodd"/><path stroke="#000000" stroke-width="1.0" stroke-linejoin="round" stroke-linecap="butt" d="m94.00084 16.0c-8.134605 0 -14.528343 2.2050266 -19.181213 6.6150837c-4.6528625 4.410055 -6.9793015 10.556814 -6.9793015 18.440279c0 4.21492 0.5433655 7.863949 1.6300888 10.947086c1.0972748 3.0831337 2.7748413 5.815029 5.032692 8.195679c2.268402 2.3806496 5.6657333 4.8393555 10.191994 7.376114c5.001045 2.7709198 8.076576 4.6051865 9.226608 5.5028076c1.1605759 0.89762115 1.9993591 1.7887421 2.5163422 2.673355c0.5275345 0.8715973 0.79130554 1.8928146 0.79130554 3.0636215c0 1.8732986 -0.64886475 3.4083633 -1.9466095 4.605194c-1.2977371 1.183815 -3.339302 1.7757263 -6.124687 1.7757263c-3.2285233 0 -6.773567 -0.63093567 -10.635132 -1.892807c-3.861557 -1.2748871 -7.5806885 -3.0441132 -11.157379 -5.307678l0 20.606277c3.3867798 1.9903793 6.64695 3.3888474 9.780518 4.195404c3.1335602 0.7935486 7.010948 1.1903305 11.632164 1.1903305c5.539131 0 10.366081 -1.138298 14.4808655 -3.4148712c4.1147766 -2.289589 7.264168 -5.489807 9.448166 -9.600647c2.183998 -4.123863 3.276001 -8.83963 3.276001 -14.147308c0 -5.776001 -1.1658554 -10.563316 -3.4975662 -14.36195c-2.3211594 -3.8116417 -6.4728622 -7.376114 -12.455124 -10.693413c-6.2354736 -3.512432 -10.060112 -5.93211 -11.473907 -7.2590294c-1.403244 -1.3269196 -2.104866 -2.8294601 -2.104866 -4.507622c0 -1.5610809 0.5539093 -2.8684883 1.6617355 -3.9222183c1.1078262 -1.05373 2.8803482 -1.5805969 5.317566 -1.5805969c4.7161713 0 10.3186035 1.8342705 16.807297 5.5028152l5.7448654 -17.854874c-7.4699097 -4.0978394 -14.797386 -6.146759 -21.982422 -6.146759z" fill-rule="evenodd"/></g></g></svg>